<?xml version="1.0" encoding="UTF-8"?>
<svg xmlns="http://www.w3.org/2000/svg" xmlns:xlink="http://www.w3.org/1999/xlink" width="38.91pt" height="96.49pt" viewBox="0 0 38.91 96.49">
<defs>
<clipPath id="clip-0">
<path clip-rule="nonzero" d="M 0.0585938 57 L 13 57 L 13 59 L 0.0585938 59 Z M 0.0585938 57 "/>
</clipPath>
<clipPath id="clip-1">
<path clip-rule="nonzero" d="M 17 91 L 31 91 L 31 95.984375 L 17 95.984375 Z M 17 91 "/>
</clipPath>
<clipPath id="clip-2">
<path clip-rule="nonzero" d="M 32 24 L 38.761719 24 L 38.761719 58 L 32 58 Z M 32 24 "/>
</clipPath>
<clipPath id="clip-3">
<path clip-rule="nonzero" d="M 8 0 L 38.761719 0 L 38.761719 21 L 8 21 Z M 8 0 "/>
</clipPath>
</defs>
<path fill="none" stroke-width="0.3985" stroke-linecap="butt" stroke-linejoin="miter" stroke="rgb(0%, 0%, 0%)" stroke-opacity="1" stroke-miterlimit="10" d="M 0.000390973 22.026938 L 0.000390973 8.730466 L -11.905959 3.27208 " transform="matrix(0.994742, 0, 0, -0.994742, 24.140236, 58.083001)"/>
<path fill="none" stroke-width="0.797" stroke-linecap="butt" stroke-linejoin="miter" stroke="rgb(0%, 0%, 0%)" stroke-opacity="1" stroke-miterlimit="10" d="M -11.905959 8.730466 L -11.905959 -8.732443 " transform="matrix(0.994742, 0, 0, -0.994742, 24.140236, 58.083001)"/>
<path fill="none" stroke-width="0.3985" stroke-linecap="butt" stroke-linejoin="miter" stroke="rgb(0%, 0%, 0%)" stroke-opacity="1" stroke-miterlimit="10" d="M -11.905959 -3.274057 L 0.000390973 -8.732443 L 0.000390973 -22.024988 " transform="matrix(0.994742, 0, 0, -0.994742, 24.140236, 58.083001)"/>
<path fill-rule="nonzero" fill="rgb(0%, 0%, 0%)" fill-opacity="1" d="M 16.46875 63.25 L 17.417969 61.183594 L 21.089844 65.371094 L 15.519531 65.320312 Z M 16.46875 63.25 "/>
<g clip-path="url(#clip-0)">
<path fill="none" stroke-width="0.3985" stroke-linecap="butt" stroke-linejoin="miter" stroke="rgb(0%, 0%, 0%)" stroke-opacity="1" stroke-miterlimit="10" d="M -11.905959 0.000974907 L -24.012582 0.000974907 " transform="matrix(0.994742, 0, 0, -0.994742, 24.140236, 58.083001)"/>
</g>
<path fill="none" stroke-width="0.3985" stroke-linecap="butt" stroke-linejoin="miter" stroke="rgb(0%, 0%, 0%)" stroke-opacity="1" stroke-miterlimit="10" d="M 0.000390973 -21.828643 L 0.000390973 -33.734994 " transform="matrix(0.994742, 0, 0, -0.994742, 24.140236, 58.083001)"/>
<g clip-path="url(#clip-1)">
<path fill="none" stroke-width="0.797" stroke-linecap="butt" stroke-linejoin="miter" stroke="rgb(0%, 0%, 0%)" stroke-opacity="1" stroke-miterlimit="10" d="M -5.952784 -33.734994 L 5.953566 -33.734994 M -3.969701 -35.718076 L 3.966557 -35.718076 M -2.481408 -37.701159 L 2.48219 -37.701159 " transform="matrix(0.994742, 0, 0, -0.994742, 24.140236, 58.083001)"/>
</g>
<path fill="none" stroke-width="0.3985" stroke-linecap="butt" stroke-linejoin="miter" stroke="rgb(0%, 0%, 0%)" stroke-opacity="1" stroke-miterlimit="10" d="M 0.000390973 21.826666 L 0.000390973 12.048694 M 0.000390973 43.801579 L 0.000390973 34.015753 " transform="matrix(0.994742, 0, 0, -0.994742, 24.140236, 58.083001)"/>
<path fill="none" stroke-width="0.797" stroke-linecap="butt" stroke-linejoin="bevel" stroke="rgb(0%, 0%, 0%)" stroke-opacity="1" stroke-miterlimit="10" d="M 0.157467 11.64815 C -3.129346 11.64815 -5.791781 13.47023 -5.791781 15.716415 C -5.791781 17.966527 -3.129346 19.78468 0.157467 19.78468 C -3.129346 19.78468 -5.791781 21.60676 -5.791781 23.852945 C -5.791781 26.09913 -3.129346 27.92121 0.157467 27.92121 C -3.129346 27.92121 -5.791781 29.74329 -5.791781 31.989474 C -5.791781 34.235659 -3.129346 36.057739 0.157467 36.057739 C -3.129346 36.057739 -5.791781 37.879819 -5.791781 40.126004 C -5.791781 42.372189 -3.129346 44.194269 0.157467 44.194269 " transform="matrix(0.994742, 0, 0, -0.994742, 24.140236, 58.083001)"/>
<path fill="none" stroke-width="0.3985" stroke-linecap="butt" stroke-linejoin="miter" stroke="rgb(0%, 0%, 0%)" stroke-opacity="1" stroke-miterlimit="10" d="M 8.506049 34.015753 L 8.506049 32.884807 M 8.506049 1.135848 L 8.506049 0.000974907 " transform="matrix(0.994742, 0, 0, -0.994742, 24.140236, 58.083001)"/>
<g clip-path="url(#clip-2)">
<path fill="none" stroke-width="0.797" stroke-linecap="butt" stroke-linejoin="bevel" stroke="rgb(0%, 0%, 0%)" stroke-opacity="1" stroke-miterlimit="10" d="M 8.345046 33.281423 C 11.631859 33.281423 14.298221 31.459343 14.298221 29.213158 C 14.298221 26.966974 11.631859 25.144894 8.345046 25.144894 C 11.631859 25.144894 14.298221 23.322814 14.298221 21.076629 C 14.298221 18.830444 11.631859 17.008364 8.345046 17.008364 C 11.631859 17.008364 14.298221 15.186284 14.298221 12.940099 C 14.298221 10.693914 11.631859 8.871834 8.345046 8.871834 C 11.631859 8.871834 14.298221 7.049754 14.298221 4.803569 C 14.298221 2.557385 11.631859 0.735305 8.345046 0.735305 " transform="matrix(0.994742, 0, 0, -0.994742, 24.140236, 58.083001)"/>
</g>
<path fill="none" stroke-width="0.3985" stroke-linecap="butt" stroke-linejoin="miter" stroke="rgb(0%, 0%, 0%)" stroke-opacity="1" stroke-miterlimit="10" d="M 4.25322 0.000974907 L 4.25322 34.015753 " transform="matrix(0.994742, 0, 0, -0.994742, 24.140236, 58.083001)"/>
<path fill="none" stroke-width="0.3985" stroke-linecap="butt" stroke-linejoin="miter" stroke="rgb(0%, 0%, 0%)" stroke-opacity="1" stroke-miterlimit="10" d="M 0.000390973 34.015753 L 0.000390973 42.521411 " transform="matrix(0.994742, 0, 0, -0.994742, 24.140236, 58.083001)"/>
<g clip-path="url(#clip-3)">
<path fill="none" stroke-width="0.797" stroke-linecap="butt" stroke-linejoin="miter" stroke="rgb(0%, 0%, 0%)" stroke-opacity="1" stroke-miterlimit="10" d="M -3.969701 48.871203 L 0.000390973 54.427761 L 3.966557 48.871203 " transform="matrix(0.994742, 0, 0, -0.994742, 24.140236, 58.083001)"/>
</g>
<path fill="none" stroke-width="0.3985" stroke-linecap="butt" stroke-linejoin="miter" stroke="rgb(0%, 0%, 0%)" stroke-opacity="1" stroke-miterlimit="10" d="M 0.000390973 42.521411 L 0.000390973 54.427761 " transform="matrix(0.994742, 0, 0, -0.994742, 24.140236, 58.083001)"/>
</svg>
