<?xml version="1.0" encoding="UTF-8"?>
<svg xmlns="http://www.w3.org/2000/svg" xmlns:xlink="http://www.w3.org/1999/xlink" width="58.42pt" height="96.49pt" viewBox="0 0 58.42 96.49">
<defs>
<clipPath id="clip-0">
<path clip-rule="nonzero" d="M 17 91 L 31 91 L 31 95.761719 L 17 95.761719 Z M 17 91 "/>
</clipPath>
<clipPath id="clip-1">
<path clip-rule="nonzero" d="M 8 0.222656 L 40 0.222656 L 40 21 L 8 21 Z M 8 0.222656 "/>
</clipPath>
<clipPath id="clip-2">
<path clip-rule="nonzero" d="M 18 30 L 57.84375 30 L 57.84375 47 L 18 47 Z M 18 30 "/>
</clipPath>
<clipPath id="clip-3">
<path clip-rule="nonzero" d="M 24 15 L 57.84375 15 L 57.84375 63 L 24 63 Z M 24 15 "/>
</clipPath>
</defs>
<path fill="none" stroke-width="0.3985" stroke-linecap="butt" stroke-linejoin="miter" stroke="rgb(0%, 0%, 0%)" stroke-opacity="1" stroke-miterlimit="10" d="M 0.000659342 22.027758 L 0.000659342 8.729056 L -11.905446 3.273077 " transform="matrix(0.990169, 0, 0, -0.990169, 23.972003, 58.037776)"/>
<path fill="none" stroke-width="0.797" stroke-linecap="butt" stroke-linejoin="miter" stroke="rgb(0%, 0%, 0%)" stroke-opacity="1" stroke-miterlimit="10" d="M -11.905446 8.729056 L -11.905446 -8.731654 " transform="matrix(0.990169, 0, 0, -0.990169, 23.972003, 58.037776)"/>
<path fill="none" stroke-width="0.3985" stroke-linecap="butt" stroke-linejoin="miter" stroke="rgb(0%, 0%, 0%)" stroke-opacity="1" stroke-miterlimit="10" d="M -11.905446 -3.275675 L 0.000659342 -8.731654 L 0.000659342 -22.026411 " transform="matrix(0.990169, 0, 0, -0.990169, 23.972003, 58.037776)"/>
<path fill-rule="nonzero" fill="rgb(0%, 0%, 0%)" fill-opacity="1" d="M 16.335938 63.183594 L 17.277344 61.125 L 20.933594 65.289062 L 15.390625 65.242188 Z M 16.335938 63.183594 "/>
<path fill="none" stroke-width="0.3985" stroke-linecap="butt" stroke-linejoin="miter" stroke="rgb(0%, 0%, 0%)" stroke-opacity="1" stroke-miterlimit="10" d="M -11.905446 -0.001299 L -24.008803 -0.001299 " transform="matrix(0.990169, 0, 0, -0.990169, 23.972003, 58.037776)"/>
<path fill="none" stroke-width="0.3985" stroke-linecap="butt" stroke-linejoin="miter" stroke="rgb(0%, 0%, 0%)" stroke-opacity="1" stroke-miterlimit="10" d="M 0.000659342 -21.829159 L 0.000659342 -33.735265 " transform="matrix(0.990169, 0, 0, -0.990169, 23.972003, 58.037776)"/>
<g clip-path="url(#clip-0)">
<path fill="none" stroke-width="0.797" stroke-linecap="butt" stroke-linejoin="miter" stroke="rgb(0%, 0%, 0%)" stroke-opacity="1" stroke-miterlimit="10" d="M -5.952393 -33.735265 L 5.953712 -33.735265 M -3.968043 -35.719616 L 3.969361 -35.719616 M -2.480766 -37.703967 L 2.482084 -37.703967 " transform="matrix(0.990169, 0, 0, -0.990169, 23.972003, 58.037776)"/>
</g>
<path fill="none" stroke-width="0.3985" stroke-linecap="butt" stroke-linejoin="miter" stroke="rgb(0%, 0%, 0%)" stroke-opacity="1" stroke-miterlimit="10" d="M 0.000659342 21.826561 L 0.000659342 16.303517 M 0.000659342 48.053132 L 0.000659342 42.522197 " transform="matrix(0.990169, 0, 0, -0.990169, 23.972003, 58.037776)"/>
<path fill="none" stroke-width="0.797" stroke-linecap="butt" stroke-linejoin="bevel" stroke="rgb(0%, 0%, 0%)" stroke-opacity="1" stroke-miterlimit="10" d="M 0.000659342 15.901124 L -5.952393 18.946688 L 5.953712 24.236976 L -5.952393 29.527263 L 5.953712 34.821496 L -5.952393 40.111783 L 5.953712 45.40207 L 0.000659342 48.447635 " transform="matrix(0.990169, 0, 0, -0.990169, 23.972003, 58.037776)"/>
<g clip-path="url(#clip-1)">
<path fill="none" stroke-width="0.797" stroke-linecap="butt" stroke-linejoin="miter" stroke="rgb(0%, 0%, 0%)" stroke-opacity="1" stroke-miterlimit="10" d="M -3.968043 48.869753 L 0.000659342 54.424358 L 3.969361 48.869753 " transform="matrix(0.990169, 0, 0, -0.990169, 23.972003, 58.037776)"/>
</g>
<path fill="none" stroke-width="0.3985" stroke-linecap="butt" stroke-linejoin="miter" stroke="rgb(0%, 0%, 0%)" stroke-opacity="1" stroke-miterlimit="10" d="M 0.000659342 42.522197 L 0.000659342 54.424358 " transform="matrix(0.990169, 0, 0, -0.990169, 23.972003, 58.037776)"/>
<g clip-path="url(#clip-2)">
<path fill="none" stroke-width="0.3985" stroke-linecap="butt" stroke-linejoin="miter" stroke="rgb(0%, 0%, 0%)" stroke-opacity="1" stroke-miterlimit="10" d="M 0.000659342 21.826561 L 13.082384 19.976341 M 20.940887 18.863842 L 34.014722 17.009678 " transform="matrix(0.990169, 0, 0, -0.990169, 23.972003, 58.037776)"/>
</g>
<g clip-path="url(#clip-3)">
<path fill="none" stroke-width="0.797" stroke-linecap="butt" stroke-linejoin="miter" stroke="rgb(0%, 0%, 0%)" stroke-opacity="1" stroke-miterlimit="10" d="M 14.751133 31.764096 L 11.409691 8.188587 M 22.605691 30.647652 L 19.268194 7.072143 " transform="matrix(0.990169, 0, 0, -0.990169, 23.972003, 58.037776)"/>
</g>
</svg>
